HIERARCHY
ROOT root
{
	OFFSET 0.000000 0.000000 0.000000
	CHANNELS 6 Xposition Yposition Zposition Zrotation Yrotation Xrotation
	JOINT lhip
	{
		OFFSET 0.058581 -0.082280 -0.017664
		CHANNELS 3 Zrotation Yrotation Xrotation
		JOINT lknee
		{
			OFFSET 0.043451 -0.386469 0.008037
			CHANNELS 3 Zrotation Yrotation Xrotation
			JOINT lankle
			{
				OFFSET -0.014790 -0.426874 -0.037428
				CHANNELS 3 Zrotation Yrotation Xrotation
				JOINT ltoe
				{
					OFFSET 0.041054 -0.060286 0.122042
					CHANNELS 3 Zrotation Yrotation Xrotation
					End Site
					{
						OFFSET 0.000000 0.000000 0.000000
					}
				}
			}
		}
	}
	JOINT rhip
	{
		OFFSET -0.060310 -0.090513 -0.013543
		CHANNELS 3 Zrotation Yrotation Xrotation
		JOINT rknee
		{
			OFFSET -0.043257 -0.383688 -0.004843
			CHANNELS 3 Zrotation Yrotation Xrotation
			JOINT rankle
			{
				OFFSET 0.019056 -0.420046 -0.034562
				CHANNELS 3 Zrotation Yrotation Xrotation
				JOINT rtoe
				{
					OFFSET -0.034840 -0.062106 0.130323
					CHANNELS 3 Zrotation Yrotation Xrotation
					End Site
					{
						OFFSET 0.000000 0.000000 0.000000
					}
				}
			}
		}
	}
	JOINT lowerback
	{
		OFFSET 0.004439 0.124404 -0.038385
		CHANNELS 3 Zrotation Yrotation Xrotation
		JOINT upperback
		{
			OFFSET 0.004488 0.137956 0.026820
			CHANNELS 3 Zrotation Yrotation Xrotation
			JOINT chest
			{
				OFFSET -0.002265 0.056032 0.002855
				CHANNELS 3 Zrotation Yrotation Xrotation
				JOINT lowerneck
				{
					OFFSET -0.013390 0.211636 -0.033468
					CHANNELS 3 Zrotation Yrotation Xrotation
					JOINT upperneck
					{
						OFFSET 0.010113 0.088937 0.050410
						CHANNELS 3 Zrotation Yrotation Xrotation
						End Site
						{
							OFFSET 0.000000 0.000000 0.000000
						}
					}
				}
				JOINT lclavicle
				{
					OFFSET 0.071702 0.114000 -0.018898
					CHANNELS 3 Zrotation Yrotation Xrotation
					JOINT lshoulder
					{
						OFFSET 0.122921 0.045205 -0.019046
						CHANNELS 3 Zrotation Yrotation Xrotation
						JOINT lelbow
						{
							OFFSET 0.255332 -0.015649 -0.022946
							CHANNELS 3 Zrotation Yrotation Xrotation
							JOINT lwrist
							{
								OFFSET 0.265709 0.012698 -0.007375
								CHANNELS 3 Zrotation Yrotation Xrotation
								End Site
								{
									OFFSET 0.000000 0.000000 0.000000
								}
							}
						}
					}
				}
				JOINT rclavicle
				{
					OFFSET -0.082954 0.112472 -0.023707
					CHANNELS 3 Zrotation Yrotation Xrotation
					JOINT rshoulder
					{
						OFFSET -0.113228 0.046853 -0.008472
						CHANNELS 3 Zrotation Yrotation Xrotation
						JOINT relbow
						{
							OFFSET -0.260127 -0.014369 -0.031269
							CHANNELS 3 Zrotation Yrotation Xrotation
							JOINT rwrist
							{
								OFFSET -0.269108 0.006794 -0.006027
								CHANNELS 3 Zrotation Yrotation Xrotation
								End Site
								{
									OFFSET 0.000000 0.000000 0.000000
								}
							}
						}
					}
				}
			}
		}
	}
}
MOTION
Frames: 8
Frame Time: 0.033333
-1.059447 1.185384 0.878142 80.183683 -3.422978 90.858037 9.035723 11.508145 18.639914 -5.139307 -13.851696 36.974262 -17.694986 -3.804836 8.384662 0.000000 -0.000000 0.000000 3.278712 8.832586 -42.149452 -0.787024 -11.715687 37.507573 -4.284755 2.471710 -8.441587 0.000000 -0.000000 0.000000 -3.747388 -15.243553 30.868109 3.794248 -11.303056 1.371808 2.512836 -6.896608 -2.641577 -6.926691 18.761914 -16.300943 -4.526592 8.917836 4.360263 -9.857699 -38.807270 -12.170499 -69.942581 -35.457491 33.835244 14.216639 -75.029572 18.689456 35.752774 -18.173241 1.894588 17.583596 22.673000 -4.078159 52.862319 26.982712 9.432922 -115.107781 56.954731 -88.363171 -26.930981 8.120764 -19.900739 
-0.977141 1.181833 0.877389 79.567300 -5.253896 89.350774 6.402753 7.599119 9.448220 -8.753755 -9.460773 57.445265 -17.008093 -4.680450 3.308724 0.000000 -0.000000 0.000000 3.034974 13.231390 -40.926516 -3.728722 -8.553905 48.268559 -6.147762 -5.379223 -15.406731 0.000000 -0.000000 0.000000 -4.160324 -13.272610 34.811037 4.394154 -9.953824 -1.873527 2.200057 -6.940521 -1.777200 -7.298766 15.513772 -15.502506 -4.407930 12.001114 4.041166 -11.085034 -40.913388 -9.198692 -68.987250 -37.040465 32.953329 30.152923 -77.171039 7.299015 28.757275 -17.258703 2.651678 15.583339 24.152124 -5.284360 51.627911 25.473381 7.786028 -118.682498 54.337475 -87.899960 2.133917 13.018570 -21.791935 
-0.899673 1.175320 0.880019 79.519069 -6.747972 85.486707 6.636151 2.696864 1.040167 -8.240749 -3.332989 71.393664 -13.863909 -2.776218 -2.530519 0.000000 -0.000000 0.000000 4.550224 14.843752 -33.657461 -4.391057 -5.358160 53.832710 -6.911569 -10.338895 -22.764315 0.000000 -0.000000 0.000000 -4.535239 -9.832208 38.669267 4.016685 -10.707712 -1.162265 1.445756 -6.012143 -1.110696 -7.157556 14.911663 -13.943369 -3.471212 10.521787 2.831365 -11.461177 -43.546617 -7.235485 -64.214986 -40.199712 29.807181 29.584423 -75.641828 5.088905 30.972192 -18.753556 0.418748 13.471249 26.758256 -6.848491 51.220896 24.651499 8.010492 -116.400796 49.724827 -83.522283 -9.469120 10.888614 -15.373066 
-0.806367 1.167069 0.884515 83.760747 -9.612539 82.558501 7.980204 0.286365 -14.329051 -3.743313 -0.815679 77.108975 -9.369866 0.538922 -12.278716 0.000000 -0.000000 0.000000 3.941325 10.389511 -24.673852 -6.251026 -3.825360 56.472039 -5.683763 -11.092065 -31.584591 0.000000 -0.000000 0.000000 -5.582407 -4.760561 38.747256 4.893737 -13.713896 1.525365 1.879314 -6.895005 -1.535271 -5.908652 16.315757 -11.158374 -2.840878 6.248882 6.807646 -9.584348 -45.730654 -5.778806 -61.648430 -43.564490 25.400826 23.970226 -69.970329 10.239978 27.992088 -18.423272 -1.791409 11.557118 26.914963 -8.508715 51.282470 24.480309 5.521074 -108.963310 48.056996 -72.702344 -16.027219 8.030254 -8.070332 
-0.751854 1.163038 0.889373 85.768169 -10.633589 82.282804 9.319634 -0.124222 -23.102693 -2.672669 1.231250 72.094789 -5.639535 3.084300 -15.497854 0.000000 -0.000000 0.000000 3.271475 8.523457 -20.890645 -4.994110 -2.126063 57.561291 -4.642799 -12.088573 -33.862486 0.000000 -0.000000 0.000000 -5.734034 -2.864302 38.437294 5.198814 -14.908282 -0.175505 1.637519 -7.093422 -0.381561 -5.218183 15.445347 -9.331877 -1.133323 4.289479 9.362684 -8.970657 -46.328638 -5.097361 -60.490046 -44.495947 24.231945 18.633884 -66.950698 14.577636 27.673426 -17.817408 -2.775692 11.139491 26.019444 -9.067047 51.829411 24.083995 4.282116 -102.505400 46.243602 -62.671241 -18.690499 7.215743 5.200517 
-0.675772 1.159538 0.899129 87.669136 -11.645416 80.975566 9.556265 -1.242042 -28.731952 -3.985508 2.085087 56.905511 -5.395754 2.486457 -14.932558 0.000000 -0.000000 0.000000 1.578404 7.480334 -17.037636 -4.268588 -2.297752 63.414967 -1.159677 -7.543106 -30.552339 0.000000 -0.000000 0.000000 -5.767149 -1.327928 39.432633 5.032796 -15.644731 -1.180837 1.349937 -6.891315 -0.394120 -4.113271 14.164232 -6.612430 0.096298 1.171283 10.450191 -7.915006 -46.611032 -5.748617 -60.227958 -43.286058 24.423068 14.973933 -64.766415 18.456897 27.754621 -20.281671 -0.751028 9.618328 24.814062 -9.711811 52.367386 22.543980 2.613341 -95.998144 44.981587 -59.373124 -22.935879 7.432273 3.461486 
-0.599107 1.161043 0.910067 86.381744 -12.689599 79.469443 9.845094 -4.125283 -26.070974 -6.595900 1.614628 36.835121 -10.221459 1.562752 -7.758777 0.000000 -0.000000 0.000000 -1.963303 8.358551 -17.673270 -3.324940 -2.426870 73.554264 6.881288 0.965674 -15.062761 0.000000 -0.000000 0.000000 -5.907650 -0.178548 40.366179 4.469177 -14.961052 0.592237 1.032535 -6.725836 -2.087424 -3.953604 13.542455 -4.566767 0.257299 -0.637807 9.563341 -10.085705 -45.398618 -4.732781 -57.893897 -40.179614 25.390607 18.646724 -66.845842 13.121944 27.049551 -22.742213 1.256639 10.324123 24.893360 -10.396856 50.844514 21.687679 3.348402 -88.319754 42.638488 -57.363828 -24.451624 7.691442 2.958469 
-0.519463 1.171379 0.910614 81.559271 -11.862720 78.787180 9.300330 -2.631399 -20.742967 -5.790978 -3.367905 25.469329 -11.811581 2.648983 -3.090475 0.000000 -0.000000 0.000000 -5.022138 8.044159 -22.133527 -0.708628 -1.554819 82.106913 7.807833 4.105903 -11.638515 0.000000 -0.000000 0.000000 -4.366316 -1.853261 39.181481 3.112381 -11.927602 2.513150 0.401405 -5.809339 -2.739081 -4.349834 13.084404 -3.371707 -1.755464 0.303285 10.138461 -12.599357 -41.980309 -3.076717 -55.780857 -36.618503 23.429653 25.184139 -71.225120 6.221169 29.208034 -22.430217 0.333694 10.375032 25.568499 -9.392741 47.113208 23.876251 1.547462 -79.261852 43.600606 -52.381140 -26.129474 8.771738 4.299433 
